<svg width="813" height="813" border-radius="50%" viewBox="0 0 813 813" fill="none" xmlns="http://www.w3.org/2000/svg">
<path fill-rule="evenodd" clip-rule="evenodd" d="M388.148 0C379.765 0 372.804 6.4697 372.191 14.8298L367.676 76.389C312.062 82.4778 260.587 102.336 216.735 132.481L168.212 90.5879C161.867 85.1099 152.369 85.4577 146.442 91.3851L126.159 111.668L105.875 131.952C99.9479 137.879 99.6002 147.376 105.078 153.721L144.735 199.655C111.142 241.91 87.6554 292.561 77.9331 347.952L14.8298 352.579C6.46971 353.192 0 360.154 0 368.537V397.221V425.906C0 434.289 6.4697 441.25 14.8298 441.864L75.4096 446.306C82.5958 504.943 105.107 558.843 138.815 603.876L97.0769 637.91C90.5803 643.207 89.2736 652.621 94.0816 659.487L110.535 682.984L126.988 706.482C131.796 713.348 141.088 715.34 148.288 711.047L210.214 674.123C250.139 703.006 296.759 723.202 347.305 731.942L352.162 798.171C352.775 806.531 359.736 813.001 368.119 813.001H396.804H425.489C433.871 813.001 440.833 806.531 441.446 798.171L446.14 734.159C500.426 727.287 550.614 707.275 593.418 677.411L644.821 721.79C651.166 727.268 660.663 726.92 666.591 720.993L686.874 700.709L707.157 680.426C713.085 674.499 713.432 665.001 707.954 658.656L665.318 609.272C697.219 568.419 719.746 519.889 729.661 466.917L798.17 461.893C806.53 461.279 813 454.318 813 445.935V417.25V388.566C813 380.183 806.53 373.221 798.17 372.608L733.197 367.844C727.015 313.371 707.619 262.906 678.292 219.733L722.412 168.629C727.89 162.284 727.543 152.787 721.615 146.86L701.332 126.576L681.049 106.293C675.121 100.366 665.624 100.018 659.279 105.496L611.14 147.057C569.813 113.925 520.371 90.4958 466.271 80.226L461.475 14.8298C460.862 6.46971 453.9 0 445.518 0H416.833H388.148ZM406.747 631.7C530.985 631.7 631.7 530.985 631.7 406.747C631.7 282.509 530.985 181.795 406.747 181.795C282.509 181.795 181.795 282.509 181.795 406.747C181.795 530.985 282.509 631.7 406.747 631.7Z" fill="#D9D9D9"/>
</svg>
